# xmcd
#
# Track frame offsets:
#	187
#	15160
#	28612
#	43017
#	57247
#	74292
#	87515
#	96707
#	112847
#	126205
#
# Disc length: 1957 seconds
#
# Revision: 4
# Processed by: cddbd v1.5.2PL0 Copyright (c) Steve Scherf et al.
# Submitted via: audiograbber 1.83.01
#
DISCID=8007a30a
DTITLE=Waylon Jennings - Full Circle
DYEAR=1988
DGENRE=Country
TTITLE0=Trouble Man
TTITLE1=Grapes On The Vine
TTITLE2=Which Way Do I Go (Now That I'm Gone)
TTITLE3=Yoyos, Bozos, Bimbos And Heroes
TTITLE4=It Goes With The Territory
TTITLE5=How Much Is It Worth To Live In L.A.
TTITLE6=Hey Willie
TTITLE7=You Put The Soul In The Song
TTITLE8=G.I. Joe
TTITLE9=Woman I Hate It
EXTD=
EXTT0=
EXTT1=
EXTT2=
EXTT3=
EXTT4=
EXTT5=
EXTT6=
EXTT7=
EXTT8=
EXTT9=
PLAYORDER=
